<svg xmlns="http://www.w3.org/2000/svg" width="26" height="30" viewBox="0 0 24 24">
  <path fill="#fff" d="M12 0a12 12 0 00-3.819 23.39c.6.11.82-.26.82-.58v-2.02c-3.338.72-4.042-1.64-4.042-1.64-.546-1.38-1.336-1.75-1.336-1.75-1.092-.74.084-.73.084-.73 1.206.084 1.84 1.236 1.84 1.236 1.07 1.798 2.808 1.276 3.494.98.108-.76.42-1.276.763-1.566-2.668-.298-5.48-1.334-5.48-5.932 0-1.312.468-2.382 1.236-3.218-.124-.306-.536-1.522.116-3.176 0 0 1.008-.322 3.3 1.23.956-.266 1.98-.398 3-.404 1.02.006 2.044.138 3 .404 2.292-1.552 3.3-1.23 3.3-1.23.652 1.654.24 2.87.12 3.176.768.836 1.236 1.906 1.236 3.218 0 4.21-2.816 5.628-5.488 5.932.432.376.82 1.112.82 2.24v3.34c0 .32.216.694.828.57A12 12 0 0012 0"/>
</svg>
