<svg xmlns="http://www.w3.org/2000/svg" width="26" height="30" viewBox="0 0 24 24">
  <rect fill="#fff" width="24" height="24" rx="5" ry="5"/>
  <circle fill="#000" cx="12" cy="12" r="6"/>
  <circle fill="#fff" cx="12" cy="12" r="3"/>
  <path fill="#000" d="M16.8 4.2H7.2c-1 0-1.8.8-1.8 1.8v9.6c0 1 .8 1.8 1.8 1.8h9.6c1 0 1.8-.8 1.8-1.8V6c0-1-.8-1.8-1.8-1.8zm-2.2 2.4c.6 0 1 .4 1 1s-.4 1-1 1-1-.4-1-1 .4-1 1-1zm-3 4.6c0 1.5 1.2 2.8 2.8 2.8s2.8-1.2 2.8-2.8-1.2-2.8-2.8-2.8-2.8 1.2-2.8 2.8zm5.2 8.8c0 .2-.2.4-.4.4H7.6c-.2 0-.4-.2-.4-.4v-5.8h1.6c-.2.6-.4 1.2-.4 1.8 0 2.8 2.2 5 5 5s5-2.2 5-5c0-.6-.2-1.2-.4-1.8h1.6v5.8z"/>
</svg>
